<svg xmlns="http://www.w3.org/2000/svg" xmlns:xlink="http://www.w3.org/1999/xlink" viewBox="0 0 595.28 437.35"><defs><style>.cls-1{isolation:isolate;}.cls-2{fill:url(#linear-gradient);}.cls-3{fill:url(#linear-gradient-2);}.cls-4,.cls-6{mix-blend-mode:screen;}.cls-4{fill:url(#linear-gradient-3);}.cls-5{mix-blend-mode:multiply;fill:url(#linear-gradient-4);}.cls-6{fill:url(#linear-gradient-5);}</style><linearGradient id="linear-gradient" x1="14.02" y1="218.67" x2="581.26" y2="218.67" gradientUnits="userSpaceOnUse"><stop offset="0" stop-color="#339"/><stop offset="1" stop-color="#f0c"/></linearGradient><linearGradient id="linear-gradient-2" x1="427.91" y1="246.98" x2="662.16" y2="246.98" gradientTransform="translate(-90.71)" xlink:href="#linear-gradient"/><linearGradient id="linear-gradient-3" x1="427.92" y1="237.96" x2="651.36" y2="237.96" gradientTransform="translate(-90.71)" xlink:href="#linear-gradient"/><linearGradient id="linear-gradient-4" x1="436.7" y1="408.27" x2="674.43" y2="136.08" gradientTransform="translate(-90.71)" gradientUnits="userSpaceOnUse"><stop offset="0" stop-color="#58236b"/><stop offset="0.64" stop-color="#f6deff"/><stop offset="1" stop-color="#58236b"/></linearGradient><linearGradient id="linear-gradient-5" x1="492.49" y1="253.06" x2="618.32" y2="153.65" gradientTransform="translate(-90.71)" gradientUnits="userSpaceOnUse"><stop offset="0"/><stop offset="0.52" stop-color="#a8a8a8"/><stop offset="1"/></linearGradient></defs><g class="cls-1"><g id="Layer_1" data-name="Layer 1"><path class="cls-2" d="M556.86,323.59c-4.69-49.2-16.89-80.62-50.67-96,43.16-16,65.22-50.38,65.22-101.94,0-72.32-40.83-101.36-87.75-108.47-17.36-2.37-30.49-3-50.67-3H255.66l-54.9,305.26L145.87,14.18H14v409H98.48V251.27c0-35.56,0-88.31-.94-129.8,5.16,41.49,14.54,94.24,22,129.8l36.13,171.89h86.8l22-106.09h35.24V423.16h38.84c1.61-10.61,5.7-29.67,17.15-48.71a103.93,103.93,0,0,1,24.36-28.14l8.76-78.44h18.77c9.39,0,17.36,0,26.75.59,21.58,1.78,35.66,27.86,39.88,72.91,2.81,29,7.51,52.75,15,81.79h92C568.59,398.86,561.08,369.82,556.86,323.59ZM281.65,234.08c6.76-34.32,14.26-77.31,19.06-112.61-.8,35.22-.92,78.56-.94,112.61H281.65ZM441.9,190.22c-6.1.6-13.6.6-22.52.6h-30.5V97.16h32.85c8.91,0,16.42,0,22.52.6,21.58,2.37,38.94,11.85,38.94,46.23S463.49,187.85,441.9,190.22Z"/><path class="cls-3" d="M338.19,422.72c-6-65.51,15.33-133.46,56.72-180.78,26.64-30.44,60.3-51.95,91.42-76.64s61.07-54.51,74.82-94.05c22,60.6,8,137.45-34.31,183-31,33.33-73.05,50.11-111.23,72.53S346.92,375.89,338.19,422.72Z"/><path class="cls-4" d="M560.64,72.58c-13.95,38.87-43.54,68.3-74.31,92.72-31.12,24.69-64.78,46.2-91.42,76.64-37.32,42.66-58.32,102.11-57.69,161.41,2.29-51.85,22.49-102.65,56-139.1,21.77-23.7,48.34-41.13,74.06-59.37s51.3-38,69.77-64.9C550.35,120.55,559.52,96.65,560.64,72.58Z"/><path class="cls-5" d="M415.61,326.75c38.18-22.42,80.24-39.2,111.23-72.53,35.82-38.53,51.31-99.51,41.9-154.09,2.14,46-12.46,93.08-40.64,127.16-21.81,26.37-50.32,44.56-78.4,62.22S393,325.12,370.88,351.13c-16.35,19.22-28.83,43.8-32.24,69.56C347.87,375.14,378,348.84,415.61,326.75Z"/><path class="cls-6" d="M393.19,264.25C435.74,215.4,498.1,193.31,537,140c-36.49,55.92-99.18,78.28-143.83,124.27Z"/></g></g></svg>